<?xml version="1.0" standalone="no"?>
<!DOCTYPE svg PUBLIC "-//W3C//DTD SVG 20010904//EN"
 "http://www.w3.org/TR/2001/REC-SVG-20010904/DTD/svg10.dtd">
<svg version="1.0" xmlns="http://www.w3.org/2000/svg"
 width="700.000000pt" height="700.000000pt" viewBox="0 0 700.000000 700.000000"
 preserveAspectRatio="xMidYMid meet">
<metadata>
Created by potrace 1.11, written by Peter Selinger 2001-2013
</metadata>
<g transform="translate(0.000000,700.000000) scale(0.100000,-0.100000)"
fill="#000000" stroke="none">
<path d="M1312 5035 c1 -2138 -4 -2569 -27 -2775 -8 -68 -25 -200 -32 -245 -3
-22 -7 -49 -8 -60 -2 -11 -6 -33 -8 -50 -3 -16 -22 -129 -42 -250 -20 -121
-38 -231 -40 -245 -3 -14 -7 -50 -10 -80 -3 -30 -8 -62 -10 -70 -3 -8 -7 -33
-10 -55 -2 -22 -7 -51 -10 -65 -3 -14 -7 -41 -10 -60 -3 -19 -7 -46 -9 -60 -7
-37 -34 -227 -41 -285 -10 -81 -7 -273 6 -334 46 -224 212 -354 454 -354 138
-1 236 39 331 133 106 104 153 227 149 385 -3 108 -14 165 -72 394 -24 96 -49
197 -54 225 -5 28 -12 65 -15 81 -3 17 -8 41 -9 55 -2 14 -6 36 -9 50 -3 14
-14 79 -25 145 -20 117 -25 143 -36 195 -3 14 -7 41 -10 60 -2 19 -20 127 -39
240 -19 113 -37 221 -41 240 -3 19 -10 59 -15 89 -6 30 -10 58 -10 61 0 4 62
-24 138 -62 247 -124 460 -179 688 -179 438 0 792 190 1439 771 130 117 205
181 206 176 1 -3 2 -9 3 -13 1 -5 6 -35 11 -68 5 -33 9 -62 10 -65 1 -3 5 -25
9 -50 12 -66 63 -215 98 -290 141 -295 422 -458 799 -462 181 -1 356 49 496
143 163 109 324 362 378 594 19 83 22 231 6 295 -7 25 -14 52 -16 60 -2 8 -4
18 -4 23 -4 35 -60 -62 -132 -228 -64 -148 -86 -183 -164 -260 -136 -135 -252
-171 -361 -111 -154 84 -247 227 -278 426 -15 91 -18 414 -21 2005 -2 941 -6
1724 -8 1740 -3 17 -5 44 -6 60 l-1 30 -400 0 -400 0 -1 -125 c0 -69 -2 -305
-5 -525 -11 -996 -6 -1811 13 -2215 12 -264 5 -365 -32 -495 -68 -232 -207
-387 -505 -560 -148 -86 -276 -147 -374 -179 -490 -160 -884 20 -1036 473 -33
97 -48 165 -56 251 -3 30 -8 71 -11 90 -3 19 -7 764 -9 1655 -2 891 -4 1625
-4 1630 0 7 -141 10 -410 10 l-409 0 1 -1910z"/>
</g>
</svg>
