<?xml version="1.0" standalone="no"?>
<!DOCTYPE svg PUBLIC "-//W3C//DTD SVG 20010904//EN"
 "http://www.w3.org/TR/2001/REC-SVG-20010904/DTD/svg10.dtd">
<svg version="1.0" xmlns="http://www.w3.org/2000/svg"
 width="910.000000pt" height="910.000000pt" viewBox="0 0 910.000000 910.000000"
 preserveAspectRatio="xMidYMid meet">
<metadata>
Created by potrace 1.11, written by Peter Selinger 2001-2013
</metadata>
<g transform="translate(0.000000,910.000000) scale(0.100000,-0.100000)"
fill="#000000" stroke="none">
<path d="M2454 5733 c-1 -2419 -3 -2869 -18 -2978 -3 -16 -7 -55 -10 -85 -3
-30 -8 -66 -10 -80 -2 -14 -7 -45 -11 -70 -14 -90 -17 -107 -35 -200 -18 -93
-77 -328 -125 -500 -25 -90 -70 -281 -80 -340 -3 -19 -8 -42 -10 -50 -2 -8 -7
-37 -11 -65 -3 -27 -8 -53 -11 -58 -2 -4 -4 -58 -4 -120 0 -237 69 -424 207
-562 103 -101 225 -146 380 -139 218 9 399 126 495 319 90 183 88 348 -12 724
-17 64 -32 123 -34 131 -2 8 -27 92 -55 185 -50 167 -113 419 -124 502 -3 22
-8 52 -11 65 -3 12 -7 39 -9 58 -13 110 -18 148 -23 175 -2 17 -7 169 -10 340
-6 332 -8 320 37 275 42 -42 190 -143 280 -192 69 -38 228 -103 270 -112 14
-3 59 -13 100 -22 107 -25 364 -26 480 -1 329 70 664 254 1050 576 151 126
198 170 402 374 130 131 158 155 159 135 8 -155 50 -375 89 -463 5 -11 21 -46
35 -78 40 -94 112 -196 199 -283 197 -195 422 -284 721 -282 489 2 815 232
989 700 60 161 106 372 123 559 l6 69 -107 0 c-58 0 -106 -3 -106 -7 -6 -105
-73 -353 -130 -478 -60 -133 -161 -239 -260 -274 -61 -22 -170 -25 -240 -7
-121 31 -189 87 -245 201 -48 98 -60 150 -91 405 -4 30 -8 1023 -8 2205 l-1
2150 -488 3 -487 2 0 -2047 -1 -2048 -82 -67 c-106 -87 -338 -261 -412 -309
-276 -182 -509 -285 -735 -324 -51 -9 -196 -9 -260 -1 -291 40 -557 228 -678
479 -33 67 -77 222 -87 305 -4 26 -8 58 -11 72 -5 32 -14 151 -19 260 -2 47
-4 894 -4 1883 l-1 1797 -483 0 -483 0 0 -2707z"/>
</g>
</svg>
